<svg xmlns="http://www.w3.org/2000/svg" xmlns:xlink="http://www.w3.org/1999/xlink" version="1.1" x="0px" y="0px" viewBox="0 0 100 125" enable-background="new 0 0 100 100" xml:space="preserve"><g><path fill="#92407E" d="M86.788,26.575C78.735,13.923,64.963,6.37,49.947,6.37c-8.281,0-16.368,2.361-23.386,6.829   C6.268,26.115,0.268,53.133,13.185,73.426c8.053,12.652,21.826,20.205,36.841,20.205c8.282,0,16.368-2.361,23.386-6.828   c9.83-6.258,16.636-15.969,19.162-27.344C95.1,48.083,93.045,36.405,86.788,26.575z M83.413,28.723   c5.684,8.929,7.551,19.536,5.256,29.869c-0.106,0.479-0.229,0.949-0.353,1.422C57.028,46.116,56.81,18.726,57.407,11.068   C68.058,13.082,77.458,19.366,83.413,28.723z M16.559,71.277c-6.169-9.693-7.582-21.073-4.859-31.393   c6.802,2.487,32.334,14.196,31.515,49.151C32.299,87.158,22.635,80.822,16.559,71.277z M71.264,83.428   c-6.375,4.059-13.719,6.203-21.238,6.203c-0.94,0-1.874-0.041-2.802-0.105c1.072-37.553-27.009-50.664-34.322-53.433   c2.909-7.786,8.271-14.724,15.807-19.52c6.375-4.058,13.719-6.203,21.238-6.203c1.185,0,2.357,0.07,3.522,0.172   c-0.56,8.213-0.172,38.519,33.642,53.312C84.124,71.904,78.634,78.736,71.264,83.428z"/></g></svg>